<svg xmlns="http://www.w3.org/2000/svg" xmlns:xlink="http://www.w3.org/1999/xlink" width="2250" zoomAndPan="magnify" viewBox="0 0 1687.5 412.499988" height="550" preserveAspectRatio="none" version="1.0">
    <defs>
        <filter x="0%" y="0%" width="100%" height="100%" id="59502f8e24">
            <feColorMatrix values="0 0 0 0 1 0 0 0 0 1 0 0 0 0 1 0 0 0 1 0" color-interpolation-filters="sRGB" />
        </filter>
        <clipPath id="817bf4d194">
            <path d="M 1 59.71875 L 1686 59.71875 L 1686 412 L 1 412 Z M 1 59.71875 " clip-rule="nonzero" />
        </clipPath>
        <clipPath id="f9c137ec90">
            <path d="M 1262 154 L 1686.230469 154 L 1686.230469 412 L 1262 412 Z M 1262 154 " clip-rule="nonzero" />
        </clipPath>
        <mask id="24b3f8715b">
            <g filter="url(#59502f8e24)">
                <rect x="-168.75" width="2025" fill="#000000" y="-41.249999" height="494.999985" fill-opacity="0.498" />
            </g>
        </mask>
        <clipPath id="dcf2a84437">
            <path d="M 1 2 L 424 2 L 424 258 L 1 258 Z M 1 2 " clip-rule="nonzero" />
        </clipPath>
        <clipPath id="4d326d2c2f">
            <rect x="0" width="425" y="0" height="258" />
        </clipPath>
        <mask id="c670336ad9">
            <g filter="url(#59502f8e24)">
                <rect x="-168.75" width="2025" fill="#000000" y="-41.249999" height="494.999985" fill-opacity="0.498" />
            </g>
        </mask>
        <clipPath id="43d7996ac6">
            <path d="M 0.0625 3 L 225.390625 3 L 225.390625 188 L 0.0625 188 Z M 0.0625 3 " clip-rule="nonzero" />
        </clipPath>
        <clipPath id="73cba2c9ab">
            <rect x="0" width="226" y="0" height="188" />
        </clipPath>
    </defs>
    <g clip-path="url(#817bf4d194)">
        <path fill="#26dfd0" d="M 1.355469 412.246094 L 1.355469 239.140625 C 93.839844 202.515625 163.753906 222.527344 230.019531 257.046875 C 392.214844 341.59375 578.199219 368.570312 758.664062 338.320312 C 907.585938 313.363281 1055.371094 288.585938 1219.730469 358.066406 C 1547.15625 481.640625 1343.867188 239.960938 1685.996094 59.804688 L 1685.996094 412.246094 Z M 1.355469 412.246094 " fill-opacity="1" fill-rule="nonzero" />
    </g>
    <g clip-path="url(#f9c137ec90)">
        <g mask="url(#24b3f8715b)">
            <g transform="matrix(1, 0, 0, 1, 1262, 154)">
                <g clip-path="url(#4d326d2c2f)">
                    <g clip-path="url(#dcf2a84437)">
                        <path fill="#e50191" d="M 1.046875 258.246094 C 1.046875 258.246094 57.050781 71.449219 251.132812 13.554688 C 351.304688 -11.984375 423.996094 13.554688 423.996094 13.554688 L 423.996094 258.246094 Z M 1.046875 258.246094 " fill-opacity="1" fill-rule="nonzero" />
                    </g>
                </g>
            </g>
        </g>
    </g>
    <g mask="url(#c670336ad9)">
        <g transform="matrix(1, 0, 0, 1, 157, 224)">
            <g clip-path="url(#73cba2c9ab)">
                <g clip-path="url(#43d7996ac6)">
                    <path fill="#e50191" d="M 198.382812 188.246094 C 199.535156 186.894531 200.652344 185.515625 201.734375 184.113281 C 202.820312 182.707031 203.871094 181.277344 204.886719 179.820312 C 205.90625 178.367188 206.886719 176.890625 207.835938 175.386719 C 208.78125 173.886719 209.691406 172.363281 210.566406 170.816406 C 211.441406 169.273438 212.28125 167.710938 213.078125 166.125 C 213.878906 164.539062 214.644531 162.9375 215.367188 161.316406 C 216.09375 159.695312 216.777344 158.058594 217.425781 156.40625 C 218.074219 154.753906 218.679688 153.085938 219.25 151.402344 C 219.816406 149.722656 220.34375 148.027344 220.832031 146.320312 C 221.320312 144.613281 221.765625 142.894531 222.171875 141.164062 C 222.578125 139.4375 222.945312 137.699219 223.269531 135.953125 C 223.59375 134.210938 223.875 132.457031 224.117188 130.699219 C 224.359375 128.9375 224.558594 127.175781 224.714844 125.40625 C 224.871094 123.636719 224.988281 121.867188 225.0625 120.09375 C 225.136719 118.316406 225.167969 116.542969 225.15625 114.769531 C 225.144531 112.992188 225.09375 111.21875 225 109.445312 C 224.902344 107.671875 224.765625 105.902344 224.589844 104.136719 C 224.410156 102.367188 224.1875 100.609375 223.925781 98.851562 C 223.664062 97.09375 223.363281 95.347656 223.015625 93.605469 C 222.671875 91.863281 222.285156 90.128906 221.859375 88.40625 C 221.433594 86.683594 220.964844 84.972656 220.457031 83.269531 C 219.949219 81.570312 219.402344 79.878906 218.8125 78.207031 C 218.226562 76.53125 217.597656 74.871094 216.929688 73.222656 C 216.261719 71.578125 215.558594 69.949219 214.816406 68.339844 C 214.070312 66.726562 213.289062 65.132812 212.46875 63.558594 C 211.648438 61.984375 210.792969 60.429688 209.902344 58.894531 C 209.007812 57.359375 208.078125 55.847656 207.113281 54.359375 C 206.148438 52.867188 205.148438 51.402344 204.117188 49.960938 C 203.082031 48.515625 202.011719 47.101562 200.914062 45.707031 C 199.8125 44.316406 198.675781 42.949219 197.511719 41.613281 C 196.34375 40.273438 195.148438 38.964844 193.917969 37.683594 C 192.691406 36.402344 191.433594 35.152344 190.144531 33.929688 C 188.859375 32.707031 187.542969 31.515625 186.199219 30.359375 C 184.855469 29.199219 183.484375 28.074219 182.085938 26.980469 C 180.691406 25.882812 179.269531 24.824219 177.820312 23.796875 C 176.371094 22.769531 174.902344 21.78125 173.40625 20.824219 C 171.914062 19.867188 170.398438 18.945312 168.859375 18.0625 C 167.320312 17.175781 165.761719 16.328125 164.183594 15.515625 C 162.605469 14.707031 161.007812 13.933594 159.394531 13.199219 C 157.78125 12.464844 156.148438 11.765625 154.5 11.109375 C 152.851562 10.453125 151.191406 9.835938 149.511719 9.253906 C 147.835938 8.675781 146.144531 8.140625 144.441406 7.640625 C 142.742188 7.140625 141.027344 6.683594 139.300781 6.265625 C 137.578125 5.851562 135.84375 5.472656 134.101562 5.140625 C 132.359375 4.804688 130.609375 4.511719 128.855469 4.257812 C 127.097656 4.007812 125.339844 3.796875 123.570312 3.628906 C 121.804688 3.460938 120.035156 3.335938 118.265625 3.25 C 116.492188 3.167969 114.71875 3.125 112.945312 3.125 C 111.171875 3.125 109.398438 3.167969 107.625 3.25 C 105.855469 3.335938 104.085938 3.460938 102.320312 3.628906 C 100.554688 3.796875 98.792969 4.007812 97.035156 4.257812 C 95.28125 4.511719 93.53125 4.804688 91.789062 5.140625 C 90.046875 5.472656 88.3125 5.851562 86.589844 6.265625 C 84.863281 6.683594 83.152344 7.140625 81.449219 7.640625 C 79.746094 8.140625 78.054688 8.675781 76.378906 9.253906 C 74.703125 9.835938 73.039062 10.453125 71.390625 11.109375 C 69.742188 11.769531 68.113281 12.464844 66.496094 13.199219 C 64.882812 13.933594 63.285156 14.707031 61.707031 15.515625 C 60.128906 16.328125 58.570312 17.175781 57.03125 18.0625 C 55.496094 18.945312 53.980469 19.867188 52.484375 20.824219 C 50.988281 21.78125 49.519531 22.769531 48.070312 23.796875 C 46.625 24.824219 45.203125 25.882812 43.804688 26.980469 C 42.40625 28.074219 41.035156 29.199219 39.691406 30.359375 C 38.347656 31.519531 37.03125 32.707031 35.746094 33.929688 C 34.457031 35.152344 33.199219 36.402344 31.972656 37.683594 C 30.746094 38.964844 29.546875 40.273438 28.382812 41.613281 C 27.214844 42.949219 26.082031 44.316406 24.980469 45.707031 C 23.878906 47.101562 22.8125 48.515625 21.777344 49.960938 C 20.742188 51.402344 19.742188 52.867188 18.777344 54.359375 C 17.8125 55.847656 16.882812 57.359375 15.992188 58.894531 C 15.097656 60.429688 14.242188 61.984375 13.421875 63.558594 C 12.601562 65.132812 11.820312 66.726562 11.078125 68.339844 C 10.332031 69.949219 9.628906 71.578125 8.960938 73.226562 C 8.292969 74.871094 7.667969 76.53125 7.078125 78.207031 C 6.492188 79.878906 5.941406 81.570312 5.433594 83.269531 C 4.925781 84.972656 4.460938 86.683594 4.03125 88.40625 C 3.605469 90.128906 3.21875 91.863281 2.875 93.605469 C 2.53125 95.347656 2.226562 97.09375 1.964844 98.851562 C 1.703125 100.609375 1.480469 102.367188 1.304688 104.136719 C 1.125 105.902344 0.988281 107.671875 0.894531 109.445312 C 0.800781 111.21875 0.746094 112.992188 0.734375 114.769531 C 0.726562 116.542969 0.757812 118.316406 0.832031 120.09375 C 0.902344 121.867188 1.019531 123.636719 1.175781 125.40625 C 1.335938 127.175781 1.535156 128.9375 1.773438 130.699219 C 2.015625 132.457031 2.296875 134.210938 2.621094 135.953125 C 2.945312 137.699219 3.3125 139.4375 3.71875 141.164062 C 4.125 142.894531 4.570312 144.613281 5.058594 146.320312 C 5.546875 148.027344 6.074219 149.722656 6.644531 151.402344 C 7.210938 153.085938 7.820312 154.753906 8.464844 156.40625 C 9.113281 158.058594 9.796875 159.695312 10.523438 161.316406 C 11.25 162.9375 12.011719 164.539062 12.8125 166.125 C 13.613281 167.710938 14.449219 169.273438 15.324219 170.816406 C 16.199219 172.363281 17.109375 173.886719 18.058594 175.386719 C 19.003906 176.890625 19.988281 178.367188 21.003906 179.820312 C 22.019531 181.277344 23.070312 182.707031 24.15625 184.113281 C 25.242188 185.515625 26.359375 186.894531 27.507812 188.246094 Z M 198.382812 188.246094 " fill-opacity="1" fill-rule="nonzero" />
                </g>
            </g>
        </g>
    </g>
</svg>
