<svg xmlns="http://www.w3.org/2000/svg" xmlns:xlink="http://www.w3.org/1999/xlink" width="2250" zoomAndPan="magnify" viewBox="0 0 1687.5 412.499988" height="550" preserveAspectRatio="xMidYMid meet" version="1.0">
    <defs>
        <filter x="0%" y="0%" width="100%" height="100%" id="1571e408d2">
            <feColorMatrix values="0 0 0 0 1 0 0 0 0 1 0 0 0 0 1 0 0 0 1 0" color-interpolation-filters="sRGB" />
        </filter>
        <clipPath id="957226c2fd">
            <path d="M 1 0.1875 L 1686.230469 0.1875 L 1686.230469 316 L 1 316 Z M 1 0.1875 " clip-rule="nonzero" />
        </clipPath>
        <clipPath id="a09a34869b">
            <path d="M 1 0.1875 L 545 0.1875 L 545 412 L 1 412 Z M 1 0.1875 " clip-rule="nonzero" />
        </clipPath>
        <clipPath id="3638f3a90d">
            <path d="M 0.773438 0.1875 L 444 0.1875 L 444 227 L 0.773438 227 Z M 0.773438 0.1875 " clip-rule="nonzero" />
        </clipPath>
        <mask id="6a88a88508">
            <g filter="url(#1571e408d2)">
                <rect x="-168.75" width="2025" fill="#000000" y="-41.249999" height="494.999985" fill-opacity="0.498" />
            </g>
        </mask>
        <clipPath id="dc06b94f07">
            <path d="M 1 0.1875 L 441 0.1875 L 441 224 L 1 224 Z M 1 0.1875 " clip-rule="nonzero" />
        </clipPath>
        <clipPath id="32f089a220">
            <rect x="0" width="444" y="0" height="227" />
        </clipPath>
        <clipPath id="5905aa30ac">
            <path d="M 1267 0.1875 L 1686.230469 0.1875 L 1686.230469 240 L 1267 240 Z M 1267 0.1875 " clip-rule="nonzero" />
        </clipPath>
        <clipPath id="ec6fd6414c">
            <path d="M 1136 0.1875 L 1573 0.1875 L 1573 107 L 1136 107 Z M 1136 0.1875 " clip-rule="nonzero" />
        </clipPath>
        <mask id="ab932394dc">
            <g filter="url(#1571e408d2)">
                <rect x="-168.75" width="2025" fill="#000000" y="-41.249999" height="494.999985" fill-opacity="0.498" />
            </g>
        </mask>
        <clipPath id="c8ba1349dd">
            <path d="M 2 0.1875 L 436 0.1875 L 436 106.429688 L 2 106.429688 Z M 2 0.1875 " clip-rule="nonzero" />
        </clipPath>
        <clipPath id="99cdaa1adb">
            <rect x="0" width="437" y="0" height="107" />
        </clipPath>
        <clipPath id="995ebbe3e9">
            <path d="M 1572 132 L 1686.230469 132 L 1686.230469 364 L 1572 364 Z M 1572 132 " clip-rule="nonzero" />
        </clipPath>
        <mask id="7950de2492">
            <g filter="url(#1571e408d2)">
                <rect x="-168.75" width="2025" fill="#000000" y="-41.249999" height="494.999985" fill-opacity="0.498" />
            </g>
        </mask>
        <clipPath id="d297d77df9">
            <path d="M 0.0664062 3 L 114.230469 3 L 114.230469 231.398438 L 0.0664062 231.398438 Z M 0.0664062 3 " clip-rule="nonzero" />
        </clipPath>
        <clipPath id="544d797210">
            <rect x="0" width="115" y="0" height="232" />
        </clipPath>
    </defs>
    <g clip-path="url(#957226c2fd)">
        <path fill="#26dfd0" d="M 1686.238281 0.128906 L 1686.238281 227.105469 C 1686.238281 227.105469 1527.269531 318.535156 1325.683594 283.089844 C 1124.09375 247.648438 1042.125 200.984375 907.652344 193.53125 C 773.183594 186.082031 605.238281 237.742188 534.292969 266.960938 C 463.34375 296.179688 363.542969 345.855469 151.519531 291.242188 C 83.699219 273.710938 17.046875 279.964844 1.261719 284.960938 L 1.261719 0.128906 Z M 1686.238281 0.128906 " fill-opacity="1" fill-rule="nonzero" />
    </g>
    <g clip-path="url(#a09a34869b)">
        <path fill="#e50191" d="M 1.40625 0.128906 L 1.40625 413.058594 C 1.40625 413.058594 155.171875 405.023438 194.605469 164.3125 C 205.804688 95.910156 211.648438 50.589844 275.464844 47.433594 C 300.371094 46.179688 465.859375 78.523438 544.40625 0.15625 Z M 1.40625 0.128906 " fill-opacity="1" fill-rule="nonzero" />
    </g>
    <g clip-path="url(#3638f3a90d)">
        <g mask="url(#6a88a88508)">
            <g transform="matrix(1, 0, 0, 1, 0.000000000000000111, 0)">
                <g clip-path="url(#32f089a220)">
                    <g clip-path="url(#dc06b94f07)">
                        <path fill="#FFF19F" d="M 1.40625 0.128906 L 1.40625 94.566406 C 1.40625 94.566406 76.332031 245.863281 226.9375 220.210938 C 307.53125 206.535156 388.710938 102.046875 440.980469 0.0703125 Z M 1.40625 0.128906 " fill-opacity="1" fill-rule="nonzero" />
                    </g>
                </g>
            </g>
        </g>
    </g>
    <g clip-path="url(#5905aa30ac)">
        <path fill="#e50191" d="M 1686.238281 0.128906 L 1686.238281 173.019531 C 1686.238281 173.019531 1507.917969 307.695312 1356.816406 192.917969 C 1242.632812 106.226562 1270.929688 0.0703125 1270.929688 0.0703125 Z M 1686.238281 0.128906 " fill-opacity="1" fill-rule="nonzero" />
    </g>
    <g clip-path="url(#ec6fd6414c)">
        <g mask="url(#ab932394dc)">
            <g transform="matrix(1, 0, 0, 1, 1136, 0)">
                <g clip-path="url(#99cdaa1adb)">
                    <g clip-path="url(#c8ba1349dd)">
                        <path fill="#FFF19F" d="M 435.148438 0.128906 L 2.125 0.128906 C 2.125 0.128906 205.875 238.824219 435.148438 0.128906 Z M 435.148438 0.128906 " fill-opacity="1" fill-rule="nonzero" />
                    </g>
                </g>
            </g>
        </g>
    </g>
    <g clip-path="url(#995ebbe3e9)">
        <g mask="url(#7950de2492)">
            <g transform="matrix(1, 0, 0, 1, 1572, 132)">
                <g clip-path="url(#544d797210)">
                    <g clip-path="url(#d297d77df9)">
                        <path fill="#FFF19F" d="M 114.238281 231.007812 L 114.238281 3.472656 C 112.375 3.472656 110.511719 3.515625 108.648438 3.601562 C 106.789062 3.691406 104.929688 3.824219 103.074219 4.003906 C 101.21875 4.183594 99.367188 4.410156 97.523438 4.679688 C 95.679688 4.953125 93.84375 5.269531 92.011719 5.628906 C 90.183594 5.988281 88.367188 6.394531 86.558594 6.84375 C 84.746094 7.296875 82.953125 7.789062 81.167969 8.328125 C 79.382812 8.867188 77.613281 9.449219 75.855469 10.074219 C 74.097656 10.699219 72.359375 11.367188 70.636719 12.078125 C 68.914062 12.789062 67.207031 13.542969 65.523438 14.335938 C 63.835938 15.132812 62.171875 15.96875 60.527344 16.84375 C 58.878906 17.71875 57.257812 18.636719 55.65625 19.59375 C 54.058594 20.546875 52.480469 21.542969 50.929688 22.578125 C 49.378906 23.609375 47.855469 24.679688 46.355469 25.789062 C 44.859375 26.898438 43.386719 28.042969 41.945312 29.222656 C 40.503906 30.402344 39.089844 31.617188 37.707031 32.867188 C 36.324219 34.117188 34.972656 35.402344 33.65625 36.714844 C 32.335938 38.03125 31.046875 39.378906 29.796875 40.761719 C 28.542969 42.140625 27.324219 43.546875 26.140625 44.988281 C 24.957031 46.425781 23.808594 47.894531 22.695312 49.390625 C 21.582031 50.886719 20.507812 52.40625 19.472656 53.957031 C 18.433594 55.503906 17.4375 57.078125 16.476562 58.675781 C 15.515625 60.273438 14.597656 61.890625 13.71875 63.535156 C 12.835938 65.175781 11.996094 66.839844 11.199219 68.523438 C 10.402344 70.207031 9.644531 71.910156 8.929688 73.632812 C 8.214844 75.351562 7.542969 77.089844 6.914062 78.84375 C 6.285156 80.597656 5.699219 82.367188 5.15625 84.148438 C 4.613281 85.929688 4.117188 87.726562 3.660156 89.535156 C 3.207031 91.339844 2.796875 93.15625 2.433594 94.984375 C 2.066406 96.8125 1.746094 98.648438 1.472656 100.492188 C 1.199219 102.332031 0.96875 104.183594 0.785156 106.035156 C 0.601562 107.890625 0.464844 109.75 0.371094 111.609375 C 0.277344 113.46875 0.230469 115.332031 0.230469 117.195312 C 0.234375 119.058594 0.28125 120.921875 0.375 122.78125 C 0.46875 124.644531 0.609375 126.5 0.792969 128.355469 C 0.976562 130.210938 1.207031 132.058594 1.484375 133.902344 C 1.761719 135.746094 2.082031 137.578125 2.445312 139.40625 C 2.8125 141.234375 3.222656 143.050781 3.675781 144.859375 C 4.132812 146.664062 4.632812 148.460938 5.175781 150.242188 C 5.71875 152.027344 6.304688 153.792969 6.933594 155.546875 C 7.5625 157.300781 8.234375 159.039062 8.953125 160.761719 C 9.667969 162.480469 10.421875 164.183594 11.222656 165.867188 C 12.019531 167.550781 12.859375 169.214844 13.742188 170.855469 C 14.621094 172.5 15.539062 174.121094 16.5 175.71875 C 17.460938 177.316406 18.457031 178.886719 19.496094 180.4375 C 20.53125 181.984375 21.605469 183.507812 22.71875 185.003906 C 23.832031 186.5 24.976562 187.96875 26.160156 189.40625 C 27.34375 190.847656 28.5625 192.257812 29.816406 193.636719 C 31.070312 195.015625 32.355469 196.363281 33.675781 197.679688 C 34.992188 198.996094 36.34375 200.28125 37.726562 201.53125 C 39.109375 202.78125 40.519531 204 41.960938 205.179688 C 43.402344 206.359375 44.875 207.507812 46.371094 208.617188 C 47.871094 209.726562 49.394531 210.796875 50.945312 211.832031 C 52.496094 212.867188 54.070312 213.863281 55.671875 214.820312 C 57.269531 215.777344 58.890625 216.695312 60.535156 217.570312 C 62.179688 218.449219 63.847656 219.285156 65.53125 220.082031 C 67.21875 220.878906 68.921875 221.632812 70.644531 222.347656 C 72.367188 223.058594 74.105469 223.726562 75.859375 224.355469 C 77.617188 224.984375 79.386719 225.566406 81.171875 226.105469 C 82.953125 226.648438 84.75 227.144531 86.558594 227.597656 C 88.367188 228.050781 90.1875 228.457031 92.015625 228.820312 C 93.84375 229.183594 95.679688 229.5 97.523438 229.773438 C 99.367188 230.046875 101.21875 230.277344 103.074219 230.457031 C 104.929688 230.640625 106.789062 230.777344 108.648438 230.871094 C 110.511719 230.960938 112.375 231.007812 114.238281 231.007812 Z M 114.238281 231.007812 " fill-opacity="1" fill-rule="nonzero" />
                    </g>
                </g>
            </g>
        </g>
    </g>
</svg>
